<svg width="38" height="38" viewBox="0 0 38 38" fill="none" xmlns="http://www.w3.org/2000/svg">
<path fill-rule="evenodd" clip-rule="evenodd" d="M0 11.875C0 10.6152 0.500445 9.40704 1.39124 8.51624C2.28204 7.62544 3.49022 7.125 4.75 7.125H22.5625C23.7146 7.12486 24.8275 7.54346 25.6939 8.30283C26.5603 9.0622 27.1212 10.1106 27.2721 11.2527L34.6584 7.9705C35.0199 7.80941 35.416 7.74123 35.8106 7.77215C36.2052 7.80308 36.5858 7.93213 36.9178 8.14759C37.2498 8.36304 37.5227 8.65805 37.7117 9.00582C37.9007 9.35358 37.9998 9.74307 38 10.1389V27.8611C37.9997 28.2566 37.9005 28.6458 37.7117 28.9933C37.5228 29.3407 37.2501 29.6355 36.9185 29.8509C36.5868 30.0663 36.2065 30.1955 35.8123 30.2267C35.418 30.2578 35.0222 30.1901 34.6607 30.0295L27.2721 26.7473C27.1212 27.8894 26.5603 28.9378 25.6939 29.6972C24.8275 30.4565 23.7146 30.8751 22.5625 30.875H4.75C3.49022 30.875 2.28204 30.3746 1.39124 29.4838C0.500445 28.593 0 27.3848 0 26.125V11.875Z" fill="#100D1A"/>
<path d="M15.9237 21.2731H19.2795C19.2347 22.2447 18.9727 23.1012 18.4933 23.8427C18.0138 24.5842 17.3491 25.1626 16.4989 25.5781C15.6552 25.9872 14.658 26.1918 13.5075 26.1918C12.5742 26.1918 11.7401 26.0352 11.005 25.7219C10.2763 25.4087 9.65625 24.9581 9.14489 24.37C8.63991 23.782 8.2532 23.0692 7.98473 22.2319C7.72266 21.3945 7.59162 20.4517 7.59162 19.4034V18.646C7.59162 17.5977 7.72905 16.6548 8.00391 15.8175C8.28516 14.9737 8.68146 14.2578 9.19283 13.6697C9.71058 13.0753 10.3306 12.6214 11.0529 12.3082C11.7752 11.995 12.5774 11.8384 13.4595 11.8384C14.674 11.8384 15.6999 12.0558 16.5373 12.4904C17.3746 12.9251 18.0234 13.5227 18.4837 14.2834C18.9439 15.0376 19.2156 15.8974 19.2987 16.8626H15.9428C15.93 16.3384 15.8406 15.9006 15.6744 15.549C15.5082 15.1911 15.2461 14.9226 14.8881 14.7436C14.5302 14.5646 14.054 14.4751 13.4595 14.4751C13.044 14.4751 12.6829 14.5518 12.3761 14.7053C12.0692 14.8587 11.8136 15.1016 11.609 15.4339C11.4045 15.7663 11.2511 16.1978 11.1488 16.7283C11.0529 17.2525 11.005 17.8853 11.005 18.6268V19.4034C11.005 20.1449 11.0497 20.7777 11.1392 21.3018C11.2287 21.826 11.3725 22.2543 11.5707 22.5866C11.7688 22.919 12.0245 23.1651 12.3377 23.3249C12.6573 23.4783 13.0472 23.555 13.5075 23.555C14.0188 23.555 14.4503 23.4751 14.8018 23.3153C15.1534 23.1491 15.4251 22.8999 15.6168 22.5675C15.8086 22.2287 15.9109 21.7972 15.9237 21.2731Z" fill="white"/>
</svg>
